<svg width="256" height="256" viewBox="0 0 256 256" xmlns="http://www.w3.org/2000/svg">
  <defs>
    <!-- Liquid Glass Gradient -->
    <linearGradient id="iconGradient" x1="0%" y1="0%" x2="100%" y2="100%">
      <stop offset="0%" style="stop-color:#60a5fa;stop-opacity:0.9" />
      <stop offset="50%" style="stop-color:#3b82f6;stop-opacity:0.7" />
      <stop offset="100%" style="stop-color:#2563eb;stop-opacity:1" />
    </linearGradient>
    
    <!-- Glow Filter -->
    <filter id="iconGlow" x="-50%" y="-50%" width="200%" height="200%">
      <feGaussianBlur stdDeviation="8" result="coloredBlur"/>
      <feMerge>
        <feMergeNode in="coloredBlur"/>
        <feMergeNode in="SourceGraphic"/>
      </feMerge>
    </filter>
    
    <!-- Glass Blur -->
    <filter id="iconBlur" x="-50%" y="-50%" width="200%" height="200%">
      <feGaussianBlur in="SourceGraphic" stdDeviation="4" />
      <feColorMatrix type="matrix" values="1 0 0 0 0  0 1 0 0 0  0 0 1 0 0  0 0 0 0.7 0"/>
    </filter>
  </defs>
  
  <!-- Background -->
  <rect width="256" height="256" rx="64" fill="url(#iconGradient)" filter="url(#iconGlow)"/>
  
  <!-- Frosted Layer -->
  <rect width="256" height="256" rx="64" fill="rgba(255,255,255,0.1)" filter="url(#iconBlur)"/>
  
  <!-- Letter 'S' -->
  <path d="M 128 50 
           Q 170 50, 185 75
           Q 200 100, 185 125
           Q 170 150, 128 150
           Q 85 150, 70 175
           Q 55 200, 70 225
           Q 85 250, 128 250
           L 145 250
           Q 170 250, 185 235
           L 185 225
           Q 185 215, 170 215
           L 145 215
           Q 120 215, 110 200
           Q 100 185, 110 175
           Q 120 165, 145 165
           L 170 165
           Q 195 165, 210 140
           Q 225 115, 210 90
           Q 195 65, 170 50
           L 128 50 Z" 
        fill="rgba(255,255,255,0.95)" 
        filter="url(#iconGlow)"
        stroke="rgba(255,255,255,0.6)"
        stroke-width="2"/>
  
  <!-- Liquid Droplets -->
  <circle cx="90" cy="85" r="5" fill="rgba(255,255,255,0.6)" filter="url(#iconGlow)">
    <animate attributeName="cy" values="85;90;85" dur="2s" repeatCount="indefinite"/>
  </circle>
  
  <circle cx="166" cy="115" r="4" fill="rgba(255,255,255,0.5)" filter="url(#iconGlow)">
    <animate attributeName="cy" values="115;120;115" dur="2.5s" repeatCount="indefinite"/>
  </circle>
  
  <circle cx="115" cy="185" r="4.5" fill="rgba(255,255,255,0.55)" filter="url(#iconGlow)">
    <animate attributeName="cy" values="185;190;185" dur="2.2s" repeatCount="indefinite"/>
  </circle>
  
  <!-- Highlight -->
  <ellipse cx="100" cy="90" rx="20" ry="25" fill="rgba(255,255,255,0.2)" filter="url(#iconBlur)"/>
  
  <!-- Border Glow -->
  <rect width="256" height="256" rx="64" fill="none" stroke="rgba(255,255,255,0.3)" stroke-width="2">
    <animate attributeName="opacity" values="0.3;0.5;0.3" dur="2s" repeatCount="indefinite"/>
  </rect>
</svg>
