<svg width="512" height="512" viewBox="0 0 512 512" xmlns="http://www.w3.org/2000/svg">
  <defs>
    <!-- Liquid Glass Gradient -->
    <linearGradient id="glassGradient" x1="0%" y1="0%" x2="100%" y2="100%">
      <stop offset="0%" style="stop-color:#60a5fa;stop-opacity:0.8" />
      <stop offset="50%" style="stop-color:#3b82f6;stop-opacity:0.6" />
      <stop offset="100%" style="stop-color:#2563eb;stop-opacity:0.9" />
    </linearGradient>
    
    <!-- Glow Gradient -->
    <radialGradient id="glowGradient" cx="50%" cy="50%" r="50%">
      <stop offset="0%" style="stop-color:#ffffff;stop-opacity:0.8" />
      <stop offset="50%" style="stop-color:#60a5fa;stop-opacity:0.4" />
      <stop offset="100%" style="stop-color:#2563eb;stop-opacity:0" />
    </radialGradient>
    
    <!-- Shimmer Gradient -->
    <linearGradient id="shimmerGradient" x1="0%" y1="0%" x2="100%" y2="0%">
      <stop offset="0%" style="stop-color:#ffffff;stop-opacity:0" />
      <stop offset="50%" style="stop-color:#ffffff;stop-opacity:0.6" />
      <stop offset="100%" style="stop-color:#ffffff;stop-opacity:0" />
    </linearGradient>
    
    <!-- Blur Filter for Glass Effect -->
    <filter id="glassBlur" x="-50%" y="-50%" width="200%" height="200%">
      <feGaussianBlur in="SourceGraphic" stdDeviation="8" />
      <feColorMatrix type="matrix" values="1 0 0 0 0  0 1 0 0 0  0 0 1 0 0  0 0 0 0.6 0"/>
    </filter>
    
    <!-- Drop Shadow -->
    <filter id="dropShadow" x="-50%" y="-50%" width="200%" height="200%">
      <feGaussianBlur in="SourceAlpha" stdDeviation="10"/>
      <feOffset dx="0" dy="10" result="offsetblur"/>
      <feComponentTransfer>
        <feFuncA type="linear" slope="0.3"/>
      </feComponentTransfer>
      <feMerge>
        <feMergeNode/>
        <feMergeNode in="SourceGraphic"/>
      </feMerge>
    </filter>
    
    <!-- Glow Effect -->
    <filter id="glow" x="-50%" y="-50%" width="200%" height="200%">
      <feGaussianBlur stdDeviation="15" result="coloredBlur"/>
      <feMerge>
        <feMergeNode in="coloredBlur"/>
        <feMergeNode in="SourceGraphic"/>
      </feMerge>
    </filter>
  </defs>
  
  <!-- Background Circle with Glow -->
  <circle cx="256" cy="256" r="240" fill="url(#glowGradient)" opacity="0.3"/>
  
  <!-- Main Glass Circle -->
  <circle cx="256" cy="256" r="200" fill="url(#glassGradient)" filter="url(#dropShadow)" opacity="0.85"/>
  
  <!-- Frosted Glass Layer -->
  <circle cx="256" cy="256" r="200" fill="none" stroke="rgba(255,255,255,0.3)" stroke-width="4" filter="url(#glassBlur)"/>
  
  <!-- Inner Glow Circle -->
  <circle cx="256" cy="256" r="180" fill="none" stroke="rgba(255,255,255,0.5)" stroke-width="2" filter="url(#glow)"/>
  
  <!-- Letter 'S' - Liquid Glass Style -->
  <path d="M 256 120 
           Q 320 120, 340 160
           Q 360 200, 340 240
           Q 320 280, 256 280
           Q 190 280, 170 320
           Q 150 360, 170 400
           Q 190 440, 256 440
           L 280 440
           Q 320 440, 340 420
           L 340 400
           Q 340 380, 320 380
           L 280 380
           Q 240 380, 220 360
           Q 200 340, 220 320
           Q 240 300, 280 300
           L 320 300
           Q 360 300, 380 260
           Q 400 220, 380 180
           Q 360 140, 320 120
           L 256 120 Z" 
        fill="rgba(255,255,255,0.9)" 
        filter="url(#glow)"
        stroke="rgba(255,255,255,0.5)"
        stroke-width="3"/>
  
  <!-- Shimmer Effect on 'S' -->
  <path d="M 256 120 
           Q 320 120, 340 160
           Q 360 200, 340 240
           Q 320 280, 256 280
           Q 190 280, 170 320
           Q 150 360, 170 400
           Q 190 440, 256 440
           L 280 440
           Q 320 440, 340 420
           L 340 400
           Q 340 380, 320 380
           L 280 380
           Q 240 380, 220 360
           Q 200 340, 220 320
           Q 240 300, 280 300
           L 320 300
           Q 360 300, 380 260
           Q 400 220, 380 180
           Q 360 140, 320 120
           L 256 120 Z" 
        fill="url(#shimmerGradient)" 
        opacity="0.4">
    <animateTransform
      attributeName="transform"
      type="translate"
      from="-100 0"
      to="100 0"
      dur="3s"
      repeatCount="indefinite"/>
  </path>
  
  <!-- Liquid Droplets -->
  <circle cx="200" cy="180" r="8" fill="rgba(255,255,255,0.6)" filter="url(#glow)">
    <animate attributeName="cy" values="180;190;180" dur="2s" repeatCount="indefinite"/>
    <animate attributeName="opacity" values="0.6;0.3;0.6" dur="2s" repeatCount="indefinite"/>
  </circle>
  
  <circle cx="312" cy="220" r="6" fill="rgba(255,255,255,0.5)" filter="url(#glow)">
    <animate attributeName="cy" values="220;230;220" dur="2.5s" repeatCount="indefinite"/>
    <animate attributeName="opacity" values="0.5;0.2;0.5" dur="2.5s" repeatCount="indefinite"/>
  </circle>
  
  <circle cx="240" cy="340" r="7" fill="rgba(255,255,255,0.55)" filter="url(#glow)">
    <animate attributeName="cy" values="340;350;340" dur="2.2s" repeatCount="indefinite"/>
    <animate attributeName="opacity" values="0.55;0.25;0.55" dur="2.2s" repeatCount="indefinite"/>
  </circle>
  
  <!-- Highlight Spots -->
  <ellipse cx="220" cy="200" rx="30" ry="40" fill="rgba(255,255,255,0.2)" filter="url(#glassBlur)"/>
  <ellipse cx="300" cy="280" rx="25" ry="35" fill="rgba(255,255,255,0.15)" filter="url(#glassBlur)"/>
  
  <!-- Outer Ring with Pulse -->
  <circle cx="256" cy="256" r="200" fill="none" stroke="rgba(96,165,250,0.4)" stroke-width="3">
    <animate attributeName="r" values="200;205;200" dur="2s" repeatCount="indefinite"/>
    <animate attributeName="opacity" values="0.4;0.6;0.4" dur="2s" repeatCount="indefinite"/>
  </circle>
  
  <!-- Text: SmonthlAPI -->
  <text x="256" y="490" font-family="Arial, sans-serif" font-size="32" font-weight="bold" 
        text-anchor="middle" fill="url(#glassGradient)" filter="url(#glow)">
    SmonthlAPI
  </text>
  
  <!-- Subtitle -->
  <text x="256" y="515" font-family="Arial, sans-serif" font-size="14" 
        text-anchor="middle" fill="rgba(96,165,250,0.8)">
    Liquid Glass UI Framework
  </text>
</svg>
